<svg width="30" height="30" viewBox="0 0 30 30" fill="none" xmlns="http://www.w3.org/2000/svg">
<path d="M18.6208 27.4533C19.8876 28.2706 21.3972 28.6267 22.8958 28.4619C24.3943 28.297 25.7904 27.6212 26.8493 26.5481L27.7751 25.643C28.1809 25.2279 28.4081 24.6704 28.4081 24.0898C28.4081 23.5093 28.1809 22.9518 27.7751 22.5367L23.8459 18.6487C23.4343 18.2442 22.8802 18.0175 22.3031 18.0175C21.7259 18.0175 21.1718 18.2442 20.7602 18.6487V18.6487C20.3451 19.0545 19.7876 19.2818 19.2071 19.2818C18.6265 19.2818 18.069 19.0545 17.6539 18.6487L11.4825 12.4773C11.2766 12.2744 11.1131 12.0326 11.0015 11.766C10.8899 11.4993 10.8325 11.2132 10.8325 10.9241C10.8325 10.6351 10.8899 10.3489 11.0015 10.0823C11.1131 9.81566 11.2766 9.57387 11.4825 9.37099V9.37099C11.887 8.95935 12.1137 8.40528 12.1137 7.82813C12.1137 7.25098 11.887 6.69691 11.4825 6.28527L7.57391 2.3767C7.15879 1.97086 6.60131 1.74362 6.02077 1.74362C5.44023 1.74362 4.88274 1.97086 4.46763 2.3767L3.56248 3.30242C2.48937 4.36131 1.81357 5.75741 1.64873 7.25597C1.48389 8.75453 1.84006 10.2641 2.65734 11.531C6.91572 17.8068 12.334 23.2111 18.6208 27.4533V27.4533Z" stroke="#121212" stroke-width="2" stroke-linecap="round" stroke-linejoin="round"/>
</svg>
